HIERARCHY
ROOT joint_Root
{
	OFFSET 0.0 0.0 0.0
	CHANNELS 6 Xposition Yposition Zposition Zrotation Xrotation Yrotation 
	JOINT Hips
	{
		OFFSET -0.726466 93.3139 -2.00062
		CHANNELS 6 Xposition Yposition Zposition Zrotation Xrotation Yrotation 
		JOINT Spine
		{
			OFFSET 15.7357 0.0 0.0
			CHANNELS 6 Xposition Yposition Zposition Zrotation Xrotation Yrotation 
			JOINT Chest
			{
				OFFSET 8.98455 -0.406207 0.0
				CHANNELS 6 Xposition Yposition Zposition Zrotation Xrotation Yrotation 
				JOINT Neck
				{
					OFFSET 16.3773 0.0 0.0
					CHANNELS 6 Xposition Yposition Zposition Zrotation Xrotation Yrotation 
					JOINT Head
					{
						OFFSET 6.45672 0.0 0.0
						CHANNELS 6 Xposition Yposition Zposition Zrotation Xrotation Yrotation 
						End Site
						{
							OFFSET 0.0 0.0 0.0
						}
					}
				}
				JOINT Shoulder_L
				{
					OFFSET 12.9942 -0.242716 4.98039
					CHANNELS 6 Xposition Yposition Zposition Zrotation Xrotation Yrotation 
					JOINT UpperArm_L
					{
						OFFSET 5.34809 0.0 0.0
						CHANNELS 6 Xposition Yposition Zposition Zrotation Xrotation Yrotation 
						JOINT LowerArm_L
						{
							OFFSET 24.3286 1.87007e-05 0.0
							CHANNELS 6 Xposition Yposition Zposition Zrotation Xrotation Yrotation 
							JOINT Hand_L
							{
								OFFSET 22.2916 0.0 0.0
								CHANNELS 6 Xposition Yposition Zposition Zrotation Xrotation Yrotation 
								End Site
								{
									OFFSET 0.0 0.0 0.0
								}
							}
						}
					}
				}
				JOINT Shoulder_R
				{
					OFFSET 12.9945 -0.242716 -4.98039
					CHANNELS 6 Xposition Yposition Zposition Zrotation Xrotation Yrotation 
					JOINT UpperArm_R
					{
						OFFSET -5.34813 0.0 0.0
						CHANNELS 6 Xposition Yposition Zposition Zrotation Xrotation Yrotation 
						JOINT LowerArm_R
						{
							OFFSET -24.3289 0.000322201 0.0
							CHANNELS 6 Xposition Yposition Zposition Zrotation Xrotation Yrotation 
							JOINT Hand_R
							{
								OFFSET -22.2915 -0.000108084 0.0
								CHANNELS 6 Xposition Yposition Zposition Zrotation Xrotation Yrotation 
								End Site
								{
									OFFSET 0.0 0.0 0.0
								}
							}
						}
					}
				}
			}
		}
		JOINT UpperLeg_L
		{
			OFFSET -2.19248 -6.46944 0.0
			CHANNELS 6 Xposition Yposition Zposition Zrotation Xrotation Yrotation 
			JOINT LowerLeg_L
			{
				OFFSET 39.0811 0.0 -1.23785e-05
				CHANNELS 6 Xposition Yposition Zposition Zrotation Xrotation Yrotation 
				JOINT Foot_L
				{
					OFFSET 40.9854 0.0 -1.26872e-05
					CHANNELS 6 Xposition Yposition Zposition Zrotation Xrotation Yrotation 
					JOINT Toes_L
					{
						OFFSET 11.7543 0.0 0.0
						CHANNELS 6 Xposition Yposition Zposition Zrotation Xrotation Yrotation 
						End Site
						{
							OFFSET 0.0 0.0 0.0
						}
					}
				}
			}
		}
		JOINT UpperLeg_R
		{
			OFFSET -2.19251 6.46944 0.0
			CHANNELS 6 Xposition Yposition Zposition Zrotation Xrotation Yrotation 
			JOINT LowerLeg_R
			{
				OFFSET -39.0811 -0.00228153 -0.0401928
				CHANNELS 6 Xposition Yposition Zposition Zrotation Xrotation Yrotation 
				JOINT Foot_R
				{
					OFFSET -40.9854 0.0 0.0
					CHANNELS 6 Xposition Yposition Zposition Zrotation Xrotation Yrotation 
					JOINT Toes_R
					{
						OFFSET -11.7543 0.0 0.0
						CHANNELS 6 Xposition Yposition Zposition Zrotation Xrotation Yrotation 
						End Site
						{
							OFFSET 0.0 0.0 0.0
						}
					}
				}
			}
		}
	}
}
MOTION
Frames:	4
Frame Time:	0.0333333
0.000000 0.000000 0.000000 0.000000 0.000000 -0.000000 -0.796700 91.966700 1.833060 87.520900 -2.160270 0.745995 15.735700 0.000005 -0.000001 79.024400 87.468500 -78.559400 8.984550 -0.406207 -0.000000 -2.791580 -1.006420 0.905562 16.377300 -0.000001 -0.000001 -1.224750 -1.718360 0.020911 6.456720 -0.000001 -0.000000 0.999895 -1.929110 0.427347 12.994200 -0.242716 4.980390 -90.149200 0.391850 -69.154800 5.348090 -0.000007 -0.000001 -65.707400 31.353400 -8.174040 24.328600 0.000019 0.000005 2.482500 4.047630 -31.558500 22.291600 -0.000001 0.000005 3.580340 5.615560 -12.320500 12.994500 -0.242716 -4.980390 88.013500 5.352450 -69.603100 -5.348130 -0.000001 -0.000004 -64.171200 25.837300 -7.052310 -24.328900 0.000322 -0.000009 -1.763240 -3.326640 -27.931500 -22.291500 -0.000108 -0.000004 6.372850 5.609280 -11.913300 -2.192480 -6.469440 -0.000000 -168.980000 -18.061000 -2.931180 39.081100 -0.000007 -0.000012 -0.190483 0.495419 21.031500 40.985400 -0.000006 -0.000013 -7.980130 -3.326820 -64.945000 11.754300 -0.000000 0.000003 -0.000145 -0.001415 -16.631400 -2.192510 6.469440 -0.000001 174.657000 22.054100 179.352000 -39.081100 -0.002282 -0.040193 -0.041234 0.139367 17.730500 -40.985400 0.000008 0.000006 -4.330370 1.630440 -63.784000 -11.754300 -0.000006 -0.000006 -0.002837 -0.038741 -18.148600
0.000000 0.000000 0.000000 0.000000 0.000000 -0.000000 -0.818572 91.972900 1.746550 87.473300 -2.265780 0.668355 15.735700 0.000005 -0.000001 79.320300 87.433400 -78.842800 8.984550 -0.406207 -0.000000 -2.717570 -0.994608 0.931354 16.377300 -0.000001 -0.000001 -1.387360 -1.717420 0.032461 6.456720 -0.000001 -0.000000 0.873785 -2.011070 0.544506 12.994200 -0.242716 4.980390 -90.153400 0.402027 -69.111400 5.348090 -0.000007 -0.000001 -64.780000 30.465700 -8.269380 24.328600 0.000019 0.000005 2.764410 4.532180 -31.427100 22.291600 -0.000001 0.000005 3.524840 5.617390 -12.442100 12.994500 -0.242716 -4.980390 88.051900 5.267630 -69.670500 -5.348130 -0.000001 -0.000004 -63.927400 26.208300 -7.043000 -24.328900 0.000322 -0.000009 -1.856520 -3.452090 -28.280100 -22.291500 -0.000108 -0.000004 6.300340 5.609120 -11.902600 -2.192480 -6.469440 -0.000000 -168.961000 -18.138600 -3.077620 39.081100 -0.000007 -0.000012 -0.190032 0.492956 21.081600 40.985400 -0.000006 -0.000013 -7.981640 -3.374340 -64.915100 11.754300 -0.000000 0.000003 -0.000132 -0.001303 -16.627200 -2.192510 6.469440 -0.000001 174.787000 22.024200 179.163000 -39.081100 -0.002282 -0.040193 -0.040823 0.137776 17.767200 -40.985400 0.000008 0.000006 -4.272770 1.655540 -63.736400 -11.754300 -0.000006 -0.000006 -0.002795 -0.038262 -18.129100
0.000000 0.000000 0.000000 0.000000 0.000000 -0.000000 -0.854002 91.995400 1.664770 87.447700 -2.360910 0.619852 15.735700 0.000005 -0.000001 79.519900 87.395000 -79.024800 8.984550 -0.406207 -0.000000 -2.638700 -0.992274 0.967430 16.377300 -0.000001 -0.000001 -1.565210 -1.738920 0.038606 6.456720 -0.000001 -0.000000 0.806388 -2.077420 0.604678 12.994200 -0.242716 4.980390 -90.163400 0.426523 -69.043900 5.348090 -0.000007 -0.000001 -63.519400 29.482300 -8.461480 24.328600 0.000019 0.000005 2.960160 4.883940 -31.273300 22.291600 -0.000001 0.000005 3.768900 5.616370 -12.374300 12.994500 -0.242716 -4.980390 88.111600 5.121270 -69.727700 -5.348130 -0.000001 -0.000004 -63.598600 26.947400 -6.960070 -24.328900 0.000322 -0.000009 -1.997350 -3.626730 -28.855800 -22.291500 -0.000108 -0.000004 6.266000 5.608730 -11.878600 -2.192480 -6.469440 -0.000000 -168.942000 -18.216700 -3.111600 39.081100 -0.000007 -0.000012 -0.187011 0.487965 20.969500 40.985400 -0.000006 -0.000013 -7.982490 -3.398650 -64.801800 11.754300 -0.000000 0.000003 -0.000137 -0.001344 -16.628800 -2.192510 6.469440 -0.000001 174.894000 22.028000 179.048000 -39.081100 -0.002282 -0.040193 -0.037584 0.128001 17.724100 -40.985400 0.000008 0.000006 -4.082560 1.710840 -63.659300 -11.754300 -0.000006 -0.000006 -0.002724 -0.037443 -18.095800
0.000000 0.000000 0.000000 0.000000 0.000000 -0.000000 -0.875522 92.001900 1.577030 87.401900 -2.498320 0.566200 15.735700 0.000005 -0.000001 80.062500 87.368600 -79.527900 8.984550 -0.406207 -0.000000 -2.577590 -0.956174 1.047660 16.377300 -0.000001 -0.000001 -1.679470 -1.705210 0.019060 6.456720 -0.000001 -0.000000 0.695660 -2.101690 0.660474 12.994200 -0.242716 4.980390 -90.155100 0.402774 -68.946300 5.348090 -0.000007 -0.000001 -62.007700 28.080400 -8.819590 24.328600 0.000019 0.000005 3.153170 5.282500 -30.894500 22.291600 -0.000001 0.000005 3.658110 5.618530 -12.519500 12.994500 -0.242716 -4.980390 88.185000 4.935680 -69.781100 -5.348130 -0.000001 -0.000004 -62.980400 28.475300 -6.766070 -24.328900 0.000322 -0.000009 -2.160490 -3.750510 -29.961300 -22.291500 -0.000108 -0.000004 6.396800 5.609690 -11.939100 -2.192480 -6.469440 -0.000000 -168.898000 -18.285800 -3.192100 39.081100 -0.000007 -0.000012 -0.187730 0.489626 20.977800 40.985400 -0.000006 -0.000013 -8.005170 -3.466390 -64.764600 11.754300 -0.000000 0.000003 -0.000139 -0.001365 -16.629500 -2.192510 6.469440 -0.000001 175.013000 21.896500 178.905000 -39.081100 -0.002282 -0.040193 -0.037768 0.128600 17.720900 -40.985400 0.000008 0.000006 -4.096230 1.724120 -63.597700 -11.754300 -0.000006 -0.000006 -0.002801 -0.038333 -18.132000
